<?xml version="1.0" standalone="no"?>
<!DOCTYPE svg>
<svg version="1.0" xmlns="http://www.w3.org/2000/svg" viewBox="0 0 737 612">

<g transform="translate(0.000000,612.000000) scale(0.100000,-0.100000)"
fill="#000000" stroke="none">
<path id="wheel" d="M3389 5695 c-507 -79 -945 -373 -1213 -813 -162 -265 -246 -568 -246
-887 0 -475 184 -905 527 -1235 332 -319 729 -480 1185 -480 293 0 524 54 780
181 488 243 831 713 924 1264 25 147 23 414 -5 567 -129 726 -712 1295 -1438
1403 -126 18 -394 18 -514 0z m345 -587 c7 -40 36 -302 36 -320 0 -10 -30 -13
-130 -13 -117 0 -130 2 -130 17 0 25 30 299 36 326 4 21 9 22 94 22 l89 0 5
-32z m150 -42 c3 -28 7 -93 8 -144 l2 -93 -35 -35 c-38 -38 -69 -38 -69 0 -1
11 -9 91 -19 176 -11 85 -17 158 -15 161 2 3 30 1 63 -4 l59 -9 6 -52z m-365
2 c-4 -35 -13 -116 -20 -181 -9 -84 -17 -121 -27 -124 -8 -4 -30 11 -52 33
l-39 39 9 134 c4 73 12 137 17 141 9 9 44 17 89 19 l30 1 -7 -62z m480 17 c44
-14 83 -30 86 -35 6 -10 -160 -188 -168 -180 -9 10 -16 240 -7 240 5 0 45 -11
89 -25z m-627 -97 c-2 -62 -6 -115 -9 -118 -3 -3 -43 35 -90 83 -47 49 -83 91
-80 93 10 10 142 54 163 54 20 0 20 -4 16 -112z m798 27 c27 -13 51 -29 54
-34 3 -5 -55 -66 -129 -136 -108 -102 -138 -125 -155 -120 -17 5 -20 15 -20
56 0 50 1 52 97 155 53 57 98 104 100 104 2 0 26 -11 53 -25z m-903 -82 c92
-97 92 -98 93 -150 0 -40 -4 -55 -18 -62 -14 -7 -42 15 -155 122 l-139 131 54
27 c29 16 57 28 63 29 5 0 51 -44 102 -97z m1103 -58 c0 -10 -153 -299 -165
-313 -2 -2 -28 16 -58 41 -30 25 -78 58 -106 73 -28 16 -51 32 -51 36 0 3 59
63 132 132 l131 125 59 -41 c32 -22 58 -47 58 -53z m-1200 -44 l135 -128 -41
-21 c-23 -12 -73 -46 -110 -76 -38 -30 -72 -52 -76 -48 -4 4 -43 74 -88 156
-68 125 -78 151 -68 164 14 17 100 81 108 82 3 0 66 -58 140 -129z m1297 -33
l22 -23 -45 -75 c-97 -161 -111 -178 -151 -189 -30 -9 -40 -8 -55 6 -10 9 -18
19 -18 23 0 4 19 43 43 86 24 44 61 111 82 149 20 39 40 73 42 78 5 9 48 -21
80 -55z m-1552 15 c11 -21 50 -93 87 -161 60 -110 66 -125 53 -139 -13 -12
-23 -13 -63 -3 -46 11 -48 13 -121 131 l-74 120 44 45 c24 24 46 44 49 44 3 0
14 -17 25 -37z m503 -65 c-26 -16 -38 -8 -38 24 l0 31 25 -23 c19 -18 22 -26
13 -32z m482 23 c0 -25 -3 -28 -26 -23 l-25 5 22 23 c28 30 29 30 29 -5z m681
-115 c27 -38 48 -71 46 -72 -4 -5 -237 -54 -253 -54 -15 0 -13 3 83 153 51 80
49 81 124 -27z m-1731 -16 c34 -56 60 -103 57 -106 -7 -7 -218 36 -230 46 -13
11 84 157 105 159 3 1 34 -44 68 -99z m747 84 c8 -21 -13 -42 -28 -27 -13 13
-5 43 11 43 6 0 13 -7 17 -16z m81 -11 c5 -17 -26 -29 -40 -15 -6 6 -7 15 -3
22 9 14 37 9 43 -7z m160 -16 c2 -12 -3 -17 -17 -17 -15 0 -21 6 -21 21 0 25
33 22 38 -4z m-395 -33 c-3 -8 -12 -14 -19 -14 -20 0 -30 30 -13 40 17 11 40
-7 32 -26z m295 9 c5 -17 -26 -29 -40 -15 -6 6 -7 15 -3 22 9 14 37 9 43 -7z
m170 0 c5 -17 -26 -29 -40 -15 -6 6 -7 15 -3 22 9 14 37 9 43 -7z m-538 -13
c0 -13 -7 -20 -20 -20 -13 0 -20 7 -20 20 0 13 7 20 20 20 13 0 20 -7 20 -20z
m140 -10 c0 -13 -7 -20 -20 -20 -19 0 -27 20 -13 33 13 14 33 6 33 -13z m440
-41 c0 -14 -5 -19 -17 -17 -26 5 -29 38 -4 38 15 0 21 -6 21 -21z m107 5 c8
-21 -13 -42 -28 -27 -13 13 -5 43 11 43 6 0 13 -7 17 -16z m-821 -63 c-9 -14
-33 -14 -41 -1 -4 6 -1 18 6 26 11 13 14 13 27 0 8 -8 11 -19 8 -25z m74 13
c0 -20 -30 -30 -40 -13 -11 17 7 40 26 32 8 -3 14 -12 14 -19z m797 0 c8 -21
-13 -42 -28 -27 -13 13 -5 43 11 43 6 0 13 -7 17 -16z m-1312 -34 c77 -16 141
-30 142 -30 1 0 11 -16 23 -35 25 -41 19 -75 -13 -75 -36 0 -339 48 -345 55
-5 5 43 115 51 115 1 0 65 -13 142 -30z m893 14 c27 -19 45 -59 37 -84 -4 -13
-18 -16 -78 -16 -68 1 -72 2 -75 25 -10 66 63 113 116 75z m985 -40 c16 -31
27 -58 25 -59 -4 -3 -344 -55 -362 -55 -7 0 -18 11 -23 23 -9 19 -7 30 9 55
11 18 30 34 42 37 57 14 253 54 266 54 10 1 27 -22 43 -55z m-1503 26 c0 -13
-7 -20 -20 -20 -19 0 -27 20 -13 33 13 14 33 6 33 -13z m335 -14 c23 -10 37
-24 41 -41 8 -32 5 -35 -70 -64 -60 -25 -73 -21 -77 19 -5 55 18 88 69 99 1 1
18 -5 37 -13z m631 -17 c3 -6 0 -17 -7 -25 -18 -17 -44 -2 -36 20 7 18 33 21
43 5z m-1122 -18 c3 -4 0 -16 -7 -25 -12 -16 -14 -16 -25 8 -10 23 -9 26 8 26
10 0 21 -4 24 -9z m1289 -6 c-6 -17 -25 -15 -31 3 -2 7 5 12 17 12 14 0 19 -5
14 -15z m-65 -28 c4 -22 -27 -35 -38 -16 -10 15 7 42 24 36 6 -2 12 -11 14
-20z m-254 -8 c35 -16 52 -61 36 -98 -6 -16 -17 -32 -24 -34 -19 -8 -126 82
-119 99 6 16 50 43 70 44 7 0 23 -5 37 -11z m-847 -15 c8 -21 -13 -42 -28 -27
-13 13 -5 43 11 43 6 0 13 -7 17 -16z m-365 -30 c95 -14 174 -27 175 -28 2 -1
-10 -33 -26 -72 -16 -38 -35 -97 -42 -131 l-13 -61 -163 81 c-90 45 -163 87
-163 93 0 25 41 144 50 144 5 0 87 -12 182 -26z m1965 -48 c13 -38 22 -70 21
-71 -6 -6 -328 -165 -333 -165 -3 0 -5 11 -5 24 0 31 -37 150 -61 199 -14 27
-16 37 -7 38 7 0 78 11 158 24 206 33 199 35 227 -49z m-1659 47 c5 -17 -26
-29 -40 -15 -6 6 -7 15 -3 22 9 14 37 9 43 -7z m1190 -10 c-5 -26 -38 -29 -38
-4 0 15 6 21 21 21 14 0 19 -5 17 -17z m-1240 -40 c5 -17 -26 -29 -40 -15 -6
6 -7 15 -3 22 9 14 37 9 43 -7z m1242 -33 c0 -13 -7 -20 -20 -20 -13 0 -20 7
-20 20 0 13 7 20 20 20 13 0 20 -7 20 -20z m-985 -3 c17 -13 16 -17 -20 -75
-21 -34 -44 -62 -51 -62 -19 0 -54 49 -54 77 0 55 79 93 125 60z m830 -22 c38
-38 27 -102 -21 -124 -22 -10 -25 -8 -39 25 -8 19 -24 49 -36 66 -22 30 -22
31 -4 44 29 22 73 17 100 -11z m232 -41 c8 -21 -13 -42 -28 -27 -13 13 -5 43
11 43 6 0 13 -7 17 -16z m-1314 -30 c-3 -8 -12 -14 -19 -14 -20 0 -30 30 -13
40 17 11 40 -7 32 -26z m1742 -18 c4 -30 5 -60 3 -66 -2 -6 -61 -36 -132 -67
l-129 -56 -41 15 c-32 12 -42 20 -44 41 -3 26 5 31 159 107 90 44 166 80 170
80 4 0 11 -24 14 -54z m-2073 -33 c129 -64 158 -82 158 -99 0 -16 -11 -25 -43
-38 -23 -9 -47 -16 -52 -16 -6 0 -65 24 -133 53 l-124 52 6 48 c7 53 15 77 25
77 3 1 77 -34 163 -77z m275 21 c3 -8 1 -20 -5 -26 -15 -15 -43 8 -35 28 7 19
32 18 40 -2z m1382 -8 c9 -10 8 -16 -4 -26 -19 -16 -41 1 -32 24 8 20 21 20
36 2z m-1143 -48 c-4 -13 -9 -47 -13 -76 -3 -29 -10 -55 -14 -58 -15 -9 -70
26 -79 51 -11 29 2 73 27 93 9 6 32 12 51 12 31 0 34 -2 28 -22z m-266 -18 c0
-13 -7 -20 -20 -20 -13 0 -20 7 -20 20 0 13 7 20 20 20 13 0 20 -7 20 -20z
m1385 -15 c0 -28 -29 -25 -33 3 -3 19 0 23 15 20 10 -2 18 -12 18 -23z m455
-101 c0 -81 -3 -105 -12 -101 -136 56 -238 101 -235 103 5 5 231 102 240 103
4 1 7 -47 7 -105z m-2159 49 c60 -25 108 -47 106 -49 -11 -11 -221 -93 -228
-88 -10 6 -12 167 -2 177 9 10 3 12 124 -40z m362 -49 c-3 -8 -12 -14 -19 -14
-20 0 -30 30 -13 40 17 11 40 -7 32 -26z m-133 1 c0 -29 0 -29 -35 -13 l-26
12 23 13 c33 18 38 16 38 -12z m1533 19 c9 -10 -4 -34 -18 -34 -17 0 -28 17
-20 30 7 11 28 13 38 4z m71 -10 c20 -8 11 -24 -15 -24 -10 0 -19 7 -19 15 0
16 9 19 34 9z m-286 -40 c28 -31 28 -64 1 -98 -15 -19 -30 -26 -54 -26 -19 0
-36 4 -39 8 -3 4 0 41 7 81 10 70 11 72 36 66 14 -3 36 -17 49 -31z m-1360 -1
c74 -31 59 -47 -122 -136 -119 -59 -161 -75 -167 -66 -8 14 -23 108 -18 114 7
6 244 104 254 105 5 0 29 -8 53 -17z m1832 -37 l125 -54 -2 -62 c-1 -34 -4
-64 -6 -67 -3 -2 -80 32 -171 76 -149 73 -166 83 -166 106 0 19 8 29 33 39 17
8 39 15 47 15 8 0 71 -24 140 -53z m-1692 17 c5 -17 -26 -29 -40 -15 -6 6 -7
15 -3 22 9 14 37 9 43 -7z m1422 -13 c0 -13 -7 -20 -20 -20 -13 0 -20 7 -20
20 0 13 7 20 20 20 13 0 20 -7 20 -20z m-47 -66 c-3 -8 -12 -14 -19 -14 -20 0
-30 30 -13 40 17 11 40 -7 32 -26z m-1408 -179 c16 -38 22 -61 15 -65 -8 -5
-254 -44 -340 -53 -15 -2 -58 99 -59 138 -1 16 31 36 161 101 l163 81 17 -72
c9 -39 28 -98 43 -130z m25 185 c0 -13 -7 -20 -20 -20 -13 0 -20 7 -20 20 0
13 7 20 20 20 13 0 20 -7 20 -20z m1807 -154 c0 0 -10 -36 -24 -79 -22 -71
-27 -78 -46 -74 -12 3 -94 15 -182 28 -88 12 -161 23 -163 24 -1 1 9 26 22 55
14 29 32 83 41 119 10 36 19 72 21 79 2 8 57 -14 166 -69 90 -45 164 -82 165
-83z m-1495 51 c33 -56 35 -63 20 -74 -23 -18 -66 -16 -91 5 -32 26 -37 72
-11 105 12 15 27 27 33 27 7 -1 29 -29 49 -63z m839 52 c29 -15 40 -52 28 -89
-13 -35 -35 -50 -77 -50 -51 0 -57 21 -22 76 16 26 30 54 30 61 0 16 15 17 41
2z m-1074 -25 c9 -23 -13 -40 -32 -24 -12 10 -13 16 -4 26 15 18 28 18 36 -2z
m1331 -27 c4 -22 -27 -35 -38 -16 -10 15 7 42 24 36 6 -2 12 -11 14 -20z
m-1351 -61 c-4 -9 -11 -16 -17 -16 -17 0 -24 31 -9 41 18 11 34 -5 26 -25z
m1311 -3 c-2 -10 -10 -18 -18 -18 -8 0 -16 8 -18 18 -2 12 3 17 18 17 15 0 20
-5 18 -17z m-899 -110 c1 -7 -9 -21 -21 -33 -28 -26 -82 -26 -108 0 -27 27
-27 83 0 110 l20 20 54 -42 c30 -24 55 -48 55 -55z m838 81 c8 -21 -13 -42
-28 -27 -13 13 -5 43 11 43 6 0 13 -7 17 -16z m-1230 -20 c8 -21 -13 -42 -28
-27 -13 13 -5 43 11 43 6 0 13 -7 17 -16z m101 -67 c2 -12 -3 -17 -17 -17 -15
0 -21 6 -21 21 0 25 33 22 38 -4z m-150 -4 c7 -12 2 -28 -16 -58 l-25 -42
-128 -27 c-70 -14 -134 -26 -143 -26 -15 0 -76 105 -65 113 4 3 317 53 351 56
9 0 21 -6 26 -16z m912 -2 c26 -50 -13 -114 -70 -114 -24 0 -40 7 -57 27 -37
44 -30 58 40 82 80 27 75 27 87 5z m808 -40 c1 -1 -11 -28 -28 -62 -23 -45
-35 -59 -48 -55 -9 3 -77 17 -150 32 l-134 28 -18 36 c-17 32 -17 40 -5 57 14
20 15 20 197 -8 101 -15 184 -28 186 -28z m-450 12 c5 -17 -26 -29 -40 -15 -6
6 -7 15 -3 22 9 14 37 9 43 -7z m-524 -29 c20 -77 -85 -130 -133 -68 -19 24
-28 73 -16 85 2 3 36 5 74 5 64 0 70 -2 75 -22z m-707 -3 c10 -17 9 -20 -15
-24 -34 -7 -36 -4 -20 22 16 26 20 26 35 2z m120 3 c8 -21 -13 -42 -28 -27
-13 13 -5 43 11 43 6 0 13 -7 17 -16z m1050 -10 c8 -21 -13 -42 -28 -27 -13
13 -5 43 11 43 6 0 13 -7 17 -16z m122 -18 c-3 -3 -15 -3 -27 1 -18 4 -20 8
-11 20 11 12 14 12 28 -1 8 -9 13 -18 10 -20z m-191 -3 c-5 -26 -38 -29 -38
-4 0 15 6 21 21 21 14 0 19 -5 17 -17z m-1091 -114 c-25 -46 -64 -118 -86
-159 -22 -41 -43 -76 -48 -77 -5 -2 -28 16 -51 40 l-43 44 76 120 c75 120 76
121 123 130 78 16 83 1 29 -98z m150 85 c8 -21 -13 -42 -28 -27 -13 13 -5 43
11 43 6 0 13 -7 17 -16z m1122 10 c26 -6 41 -23 106 -127 41 -66 75 -126 75
-133 0 -12 -77 -84 -89 -84 -3 0 -20 26 -36 58 -17 31 -55 103 -85 159 -46 86
-52 103 -41 117 15 18 24 19 70 10z m-1400 -51 c-13 -21 -44 -71 -69 -111
l-46 -73 -57 77 c-31 41 -57 79 -57 84 0 5 26 14 58 20 31 7 82 18 112 25 84
20 84 19 59 -22z m388 21 c8 -21 -13 -42 -28 -27 -13 13 -5 43 11 43 6 0 13
-7 17 -16z m1216 -15 c64 -13 117 -28 117 -34 0 -14 -102 -148 -116 -152 -6
-2 -35 36 -64 84 -30 48 -61 99 -69 113 -14 21 -14 23 -1 19 8 -3 68 -17 133
-30z m-1339 -53 c32 -26 78 -57 103 -69 24 -12 42 -24 41 -28 -2 -4 -62 -64
-134 -133 l-131 -125 -49 33 c-94 64 -94 50 3 229 59 108 89 155 97 149 6 -5
37 -30 70 -56z m1125 -105 c45 -82 81 -154 81 -159 0 -9 -112 -92 -125 -92 -4
0 -67 57 -140 127 l-134 127 54 29 c30 16 80 51 112 77 32 26 61 46 64 44 4
-2 43 -71 88 -153z m-219 119 c0 -13 -7 -20 -20 -20 -13 0 -20 7 -20 20 0 13
7 20 20 20 13 0 20 -7 20 -20z m-746 -15 c3 -9 -1 -18 -10 -22 -19 -7 -39 11
-30 26 10 16 33 13 40 -4z m604 -2 c-5 -26 -38 -29 -38 -4 0 15 6 21 21 21 14
0 19 -5 17 -17z m75 -19 c-3 -8 -12 -14 -19 -14 -20 0 -30 30 -13 40 17 11 40
-7 32 -26z m-513 -15 c0 -14 -5 -19 -17 -17 -26 5 -29 38 -4 38 15 0 21 -6 21
-21z m-113 -5 c7 -18 -17 -38 -31 -24 -11 11 -1 40 14 40 6 0 13 -7 17 -16z
m341 -11 c5 -17 -26 -29 -40 -15 -6 6 -7 15 -3 22 9 14 37 9 43 -7z m-170 -30
c5 -17 -26 -29 -40 -15 -6 6 -7 15 -3 22 9 14 37 9 43 -7z m232 -3 c0 -13 -7
-20 -20 -20 -13 0 -20 7 -20 20 0 13 7 20 20 20 13 0 20 -7 20 -20z m70 -1 c0
-25 -33 -22 -38 4 -2 12 3 17 17 17 15 0 21 -6 21 -21z m-237 -5 c9 -10 -4
-34 -18 -34 -17 0 -28 17 -20 30 7 11 28 13 38 4z m-255 -26 c7 -7 12 -33 12
-59 0 -45 -3 -49 -97 -148 l-98 -102 -53 28 c-29 15 -51 32 -50 38 4 13 256
255 266 255 4 0 13 -5 20 -12z m751 -142 l115 -114 -58 -29 -58 -28 -99 104
c-97 102 -99 105 -99 152 0 35 5 51 17 57 22 13 42 -2 182 -142z m-670 118 c3
-3 -7 -16 -21 -30 l-26 -26 -4 37 c-4 35 -3 36 21 30 14 -4 28 -9 30 -11z
m451 -26 l0 -31 -25 23 c-27 25 -25 40 6 40 15 0 19 -7 19 -32z m-402 5 c12
-23 47 -342 38 -350 -3 -3 -32 -2 -63 3 l-58 9 -8 133 -8 133 38 44 c41 50 48
53 61 28z m274 -35 c-2 -18 -11 -98 -20 -178 l-17 -145 -85 0 -85 0 -17 145
c-9 80 -19 161 -21 180 l-4 35 126 -2 126 -2 -3 -33z m96 2 l33 -40 -9 -130
c-5 -71 -11 -132 -14 -135 -3 -4 -31 -9 -62 -12 -54 -6 -56 -5 -56 18 0 30 30
309 36 327 7 24 39 11 72 -28z m-479 -217 c1 -46 -2 -83 -6 -82 -19 2 -165 55
-166 60 -1 3 34 45 78 94 l80 87 7 -38 c4 -22 7 -76 7 -121z m701 -25 c0 -7
-151 -58 -173 -58 -9 0 -10 29 -5 117 3 65 7 120 7 123 1 7 170 -173 171 -182z"/>
<path id="wingL1" d="M330 5151 c0 -194 269 -470 714 -730 161 -95 462 -238 475 -226 2 3
-5 56 -15 119 l-18 116 -120 61 c-296 150 -561 329 -978 665 l-58 46 0 -51z"/>
<path id="wingR1" d="M6865 5123 c-309 -257 -612 -463 -912 -620 -79 -41 -143 -75 -143
-76 0 -1 -9 -54 -19 -117 -11 -63 -18 -116 -16 -118 8 -8 255 107 392 183 401
223 675 455 767 650 26 54 47 176 30 174 -5 0 -49 -34 -99 -76z"/>
<path id="wingL2" d="M413 4704 c15 -147 152 -324 392 -506 209 -158 542 -349 742 -424
l65 -25 -5 23 c-3 13 -11 59 -17 103 -6 44 -13 88 -16 97 -3 9 -64 48 -137 86
-321 168 -561 333 -969 664 -26 21 -50 38 -54 38 -4 0 -4 -25 -1 -56z"/>
<path id="wingR2" d="M6835 4729 c-46 -40 -231 -186 -351 -276 -189 -143 -447 -304 -643
-403 l-118 -59 -17 -105 c-23 -147 -24 -139 27 -120 83 32 304 141 402 199
245 143 424 277 562 417 128 130 188 243 181 339 l-3 44 -40 -36z"/>
<path id="wingL3" d="M560 4221 c0 -181 252 -445 676 -707 199 -123 494 -267 512 -250 3 4
-7 58 -22 119 l-29 113 -116 59 c-274 141 -487 285 -850 575 -80 64 -152 119
-158 124 -10 5 -13 -3 -13 -33z"/>
<path id="wingR3" d="M6600 4159 c-378 -306 -593 -451 -919 -621 l-83 -44 -30 -113 c-16
-63 -27 -116 -24 -118 25 -25 434 188 646 336 276 192 436 347 505 486 33 67
57 175 39 175 -5 0 -65 -46 -134 -101z"/>
<path id="wingL4" d="M753 3685 c20 -194 277 -446 726 -713 199 -118 571 -295 587 -279 3
2 -33 65 -78 138 -78 124 -87 136 -138 163 -375 196 -532 302 -1040 700 l-63
50 6 -59z"/>
<path id="wingR4" d="M6420 3644 c-228 -183 -487 -372 -655 -475 -38 -23 -137 -77 -220
-120 l-150 -78 -86 -138 c-47 -76 -83 -139 -79 -141 29 -11 386 162 604 292
350 211 587 415 670 579 30 60 51 167 32 166 -6 0 -58 -38 -116 -85z"/>
<path id="lent" d="M760 2963 c0 -27 152 -355 204 -438 l24 -40 -31 -13 c-118 -51 -291
-90 -443 -101 -57 -4 -106 -10 -109 -12 -6 -7 231 -148 340 -202 130 -64 262
-115 372 -143 53 -13 98 -26 101 -28 4 -5 -20 -68 -105 -285 -35 -89 -42 -115
-32 -122 7 -4 76 -28 154 -53 480 -156 1026 -258 1670 -313 266 -23 1177 -26
1425 -5 715 61 1264 163 1762 328 130 43 137 46 128 67 -17 46 -142 363 -147
373 -2 7 24 18 69 29 206 51 434 152 677 303 84 52 81 60 -25 61 -92 1 -237
29 -354 67 -58 19 -111 39 -119 43 -11 7 -7 21 22 67 19 33 47 84 62 114 34
66 134 304 131 308 -2 1 -41 -18 -88 -43 -280 -149 -730 -304 -1158 -399 -90
-21 -166 -38 -167 -40 -4 -4 130 -32 242 -50 120 -20 317 -43 440 -52 94 -7
98 -8 69 -20 -56 -23 -586 -152 -814 -198 -1017 -204 -1806 -204 -2815 -1
-248 50 -654 147 -800 191 l-60 18 145 13 c180 16 470 57 570 81 l75 18 -100
23 c-496 113 -813 217 -1142 376 -95 46 -173 81 -173 78z m989 -873 c4 0 14
-13 24 -29 13 -23 17 -52 17 -138 -1 -119 -14 -300 -22 -308 -3 -3 -22 2 -43
12 l-37 18 7 72 7 73 -41 0 c-40 0 -40 0 -57 -55 -14 -45 -22 -55 -40 -55 -37
0 -49 27 -49 111 -1 76 0 79 25 84 19 4 36 26 70 86 43 78 70 106 90 94 6 -3
10 6 10 20 0 21 4 26 16 21 9 -3 19 -6 23 -6z m3526 -64 c11 -8 33 -12 50 -9
25 4 34 -1 58 -31 93 -120 116 -278 51 -356 -20 -23 -34 -30 -61 -30 -139 0
-236 215 -172 385 22 58 38 67 74 41z m410 -60 c19 -28 12 -66 -18 -109 -19
-27 -19 -29 -1 -49 11 -12 45 -40 76 -63 54 -40 56 -44 39 -59 -34 -31 -65
-20 -131 46 l-63 62 6 -37 c4 -20 10 -53 13 -72 6 -34 6 -35 -24 -35 -45 0
-58 27 -76 166 -20 147 -20 134 3 134 36 0 50 -12 57 -46 3 -19 10 -37 15 -40
9 -5 59 90 59 114 0 21 29 13 45 -12z m-3699 -56 c70 -34 90 -108 40 -149 -11
-10 -13 -18 -6 -31 19 -35 12 -85 -15 -110 -27 -26 -58 -28 -158 -11 -4 0 -12
11 -18 24 -8 18 -4 47 16 127 23 92 25 104 11 112 -9 5 -16 15 -16 21 0 41 78
49 146 17z m694 10 c23 -12 47 -85 56 -168 l7 -63 33 68 c18 37 46 84 63 103
33 39 48 37 83 -11 17 -23 18 -33 7 -119 -6 -53 -9 -143 -6 -202 3 -60 3 -108
0 -108 -17 0 -73 44 -78 61 -4 11 -4 73 -1 137 l6 117 -24 -50 c-14 -27 -33
-85 -43 -127 -10 -43 -22 -78 -28 -78 -24 0 -55 33 -64 68 -5 20 -13 66 -16
102 -15 132 -26 109 -60 -123 -4 -21 -13 -41 -21 -44 -22 -8 -64 36 -64 66 0
35 52 224 78 282 11 26 18 57 15 72 -4 23 -2 27 16 27 12 0 31 -4 41 -10z
m-465 -60 c68 -8 95 -25 95 -57 0 -10 -11 -12 -43 -8 l-44 6 -16 -98 c-8 -54
-13 -113 -10 -130 4 -28 2 -33 -13 -33 -11 1 -29 9 -41 19 -28 23 -30 78 -8
164 20 78 20 77 -25 77 -35 0 -40 3 -40 23 0 48 21 53 145 37z m1602 -7 c15
-10 39 -18 52 -18 21 0 31 -11 60 -67 39 -77 53 -187 31 -252 -19 -57 -66
-106 -102 -106 -145 0 -218 256 -118 414 33 51 39 54 77 29z m1301 -10 c35
-22 48 -58 35 -94 -10 -26 -9 -32 13 -54 55 -55 15 -150 -61 -148 -19 1 -35
-4 -35 -9 0 -11 -49 -2 -63 12 -7 6 -34 175 -37 221 0 4 -9 9 -20 12 -27 7
-26 43 3 58 55 30 120 31 165 2z m-2673 -43 c4 -11 19 -27 35 -35 52 -27 59
-110 17 -192 -53 -101 -163 -78 -197 42 -15 55 -9 104 21 151 43 70 107 87
124 34z m2374 -4 c13 -14 35 -26 49 -28 87 -10 96 -210 11 -257 -35 -20 -75
-7 -120 38 -67 66 -73 181 -14 245 30 32 45 33 74 2z m-309 -13 c14 -10 39
-18 57 -19 73 -2 128 -79 121 -170 -8 -94 -74 -164 -116 -122 -9 9 -12 -7 -12
-75 0 -48 -2 -87 -5 -87 -14 0 -75 35 -76 44 -1 6 0 72 1 147 2 135 2 135 -26
170 -15 19 -29 36 -31 38 -1 2 -18 0 -37 -3 -33 -6 -35 -9 -32 -39 3 -18 8
-58 11 -91 4 -32 13 -76 20 -97 l14 -39 -27 0 c-63 0 -80 32 -85 165 -3 63 -5
70 -23 67 -10 -2 -31 -4 -46 -5 -16 -1 -28 -7 -28 -14 0 -16 -33 -34 -46 -25
-6 4 -15 16 -21 26 -10 18 -12 17 -27 -12 -16 -31 -21 -106 -10 -136 7 -18 59
-22 69 -6 11 17 43 11 50 -10 8 -27 -1 -39 -41 -56 -51 -21 -80 -17 -118 17
-66 57 -70 176 -10 249 34 40 93 42 129 5 14 -13 25 -19 25 -12 0 27 20 40 81
53 94 20 135 18 152 -7 17 -23 29 -12 27 24 -1 12 -2 25 -1 30 2 13 36 7 61
-10z m-1400 -63 c12 -16 28 -30 36 -30 20 0 54 -59 54 -94 0 -47 -22 -106 -51
-137 -31 -33 -80 -39 -117 -13 -25 17 -56 74 -66 119 -15 68 49 185 100 185
14 0 31 -12 44 -30z m321 -11 c25 -25 16 -36 -31 -41 l-35 -3 0 -132 c0 -128
-1 -133 -20 -127 -11 3 -31 13 -44 21 -24 15 -24 17 -18 125 l7 110 -39 -7
c-42 -7 -54 4 -41 40 8 24 41 32 133 34 56 1 71 -3 88 -20z m149 -9 c12 -16
30 -30 40 -30 22 0 50 -41 57 -84 10 -65 -38 -166 -84 -178 -88 -22 -177 113
-143 217 15 46 66 105 90 105 10 0 28 -13 40 -30z"/>
<path id="pointA" d="M1689 1930 c-30 -46 -32 -68 -9 -75 29 -9 32 -5 28 51 -3 48 -3 48
-19 24z"/>
<path id="pointLastO" d="M5285 1939 c-22 -68 -3 -194 37 -251 25 -36 34 -35 47 3 22 62 6 174
-32 230 -28 41 -43 46 -52 18z"/>
<path id="pointFirstBTop" d="M1936 1835 c-9 -46 -3 -52 29 -31 32 21 31 59 -1 64 -18 3 -23 -4
 -28 -33z"/>
<path id="pointFirstBBot" d="M1911 1709 c-6 -18 -11 -38 -11 -45 0 -23 27 -16 49 12 16 20 18 31
10 45 -15 28 -36 23 -48 -12z"/>
<path id="pointFirstO" d="M3805 1737 c-32 -77 -11 -267 27 -255 55 18 61 259 8 288 -15 8 -21
3 -35 -33z"/>
<path id="pointLastBTop" d="M5043 1814 c-7 -3 -10 -11 -8 -17 2 -7 6 -25 10 -42 l7 -30 19 24
c23 28 25 57 3 65 -9 3 -16 6 -17 5 -1 0 -7 -3 -14 -5z"/>
<path id="pointLastBBot" d="M5067 1683 c-10 -9 -8 -38 4 -70 l11 -28 19 24 c23 28 24 45 3 65
-17 17 -27 20 -37 9z"/>
<path id="pointFirstSmallO" d="M2405 1736 c-25 -37 -44 -116 -35 -141 12 -32 33 -23 58 25 25 50 28
97 8 125 -13 18 -14 17 -31 -9z"/>
<path id="pointFourthSmallO" d="M4799 1723 c-15 -39 -6 -130 15 -151 16 -16 18 -16 32 2 18 25 18 97
0 141 -18 42 -33 44 -47 8z"/>
<path id="pointP" d="M4552 1691 c-10 -6 -12 -23 -7 -67 10 -88 14 -98 32 -83 41 34 56
114 27 143 -17 18 -32 20 -52 7z"/>
<path id="pointSecondSmallO" d="M3077 1659 c-27 -41 -41 -116 -28 -145 14 -32 31 -27 53 17 21 41 23
108 4 134 -13 18 -14 17 -29 -6z"/>
<path id="pointThirdSmallO" d="M3546 1626 c-23 -49 -19 -149 7 -154 42 -8 62 137 25 175 -13 13 -17
10 -32 -21z"/>
<path id="bottom" d="M2420 1083 c0 -17 53 -99 100 -157 168 -207 460 -356 812 -415 547
 -92 1123 63 1413 381 50 54 140 187 132 194 -1 1 -51 -4 -111 -12 -582 -72
 -1301 -84 -1901 -34 -152 13 -393 39 -422 45 -13 3 -23 2 -23 -2z"/>
</g>
</svg>
